<svg xmlns="http://www.w3.org/2000/svg" width="565.013" height="345.004" viewBox="0 0 565.013 345.004"><defs><style>.a{fill:#edefef;opacity:0.593;}.b,.d{fill:#e1e4e5;}.b,.c,.f,.g{fill-rule:evenodd;}.c,.h{fill:#fff;}.e,.g{fill:#0a2e57;}.f{fill:#f8ae9d;}.i{fill:#29b17a;}.j{fill:none;stroke:#31446c;stroke-linecap:round;stroke-linejoin:round;stroke-width:11px;opacity:0.818;}</style></defs><g transform="translate(-650.072 -847.833)"><path class="a" d="M271.452,85.626C359.2,80.533,451.2,107.058,437.68,145.51s72.3-13.657,106.549.207c24.385,9.869,14.637,39.916,26.433,52.023,27.046,27.758,54.71-7.2,89.133,13.777s-36.054,216.723-72.016,217.815L177.607,426.84l-29.435-2.645S66.752,379.666,125,338.591c39.382-27.774,11.046-47.943,6.762-60.658-4.918-14.6-16.392-40.1,33.6-58.807S202.45,159.7,201.22,151.271,183.7,90.719,271.452,85.626Z" transform="translate(546.071 762.833)"/><path class="b" d="M316.006,284.552a72.613,72.613,0,1,1,93.076-43.4A72.617,72.617,0,0,1,316.006,284.552Z" transform="translate(515.939 752.063)"/><path class="c" d="M325.85,271.835a55.06,55.06,0,1,1,70.578-32.906A55.063,55.063,0,0,1,325.85,271.835Z" transform="translate(512.013 748.148)"/><path class="d" d="M370.532,312.587a11.31,11.31,0,0,1,21.513-6.99l8.828,27.17-21.513,6.989-8.828-27.169Z" transform="translate(497.263 723.786)"/><rect class="e" width="34.525" height="118.41" rx="6.31" transform="translate(868.007 1058.207) rotate(-18)"/><path class="f" d="M514.862,424.5l-8-12.543a98.237,98.237,0,0,0-40.187-35.673l-32.81-15.8a39.07,39.07,0,0,0-16.956-3.872h-6.963l2.646,8.782-37.284-9.106a7.337,7.337,0,0,0-5.969,13.123l10.307,7.268a9.6,9.6,0,0,0-1.652,16.288l5.237,3.99a8.251,8.251,0,0,0-.551,13.663l7.6,5.592a10.908,10.908,0,0,0,5.995,11.955l8.124,3.883a22.45,22.45,0,0,0,3.741,1.4L445.7,443.769l41.925,28.107,27.233-47.38Z" transform="translate(497.95 713.09)"/><path class="g" d="M598.848,486.442l-90.876-87.019L445.408,462.5l25.1,23.941Z" transform="translate(483.421 705.134)"/><ellipse class="h" cx="4.766" cy="5.064" rx="4.766" ry="5.064" transform="translate(998.713 1135.391) rotate(180)"/><path class="i" d="M291.974,461.746c-48.665-17.766-82.705-60.138-102.69-92.553A348.024,348.024,0,0,1,157.2,302.3l-2.148.856a350.636,350.636,0,0,0,32.292,67.37c20.177,32.739,54.569,75.542,103.838,93.53Z" transform="translate(536.703 722.957)"/><path class="i" d="M153.4,284.79a35.378,35.378,0,0,1,2.829,26.126c-7.735-1.893-14.91-7.377-19.338-15.747a35.352,35.352,0,0,1-2.834-26.126C141.8,270.936,148.968,276.42,153.4,284.79ZM148.635,316.8A31.063,31.063,0,0,1,166.3,334.641a29.592,29.592,0,0,1-24.654,1.177,31.092,31.092,0,0,1-17.667-17.844A29.577,29.577,0,0,1,148.635,316.8Zm6.673,49.219c12.505-1.786,22.009-7.7,21.226-13.2s-11.555-8.52-24.06-6.733-22.009,7.7-21.226,13.2S142.8,367.8,155.308,366.017Zm17.16,27.99c12.505-1.786,22.009-7.7,21.226-13.2s-11.554-8.52-24.06-6.733-22.009,7.7-21.226,13.2S159.962,395.795,172.468,394.007Z" transform="translate(542.405 729.06)"/><path class="i" d="M178.858,339.194a34.486,34.486,0,0,1,9.574-22.258c4.809,5.262,7.6,13.123,7.112,21.958a34.482,34.482,0,0,1-9.575,22.258C181.157,355.89,178.366,348.029,178.858,339.194Zm17.913,28.967a34.622,34.622,0,0,1,9.251-22.427c4.892,5.165,7.8,12.968,7.436,21.808A34.6,34.6,0,0,1,204.2,389.97c-4.882-5.166-7.793-12.969-7.431-21.809Zm12.719,43.563a11.992,11.992,0,0,1,10.463-.494,13.893,13.893,0,0,1-6.827,8.665,11.991,11.991,0,0,1-10.463.493A13.863,13.863,0,0,1,209.49,411.725Zm67.981,55.408c-18.917-22.729-23.558-53.4-24.12-75.131a198.634,198.634,0,0,1,3.359-42.215l-1.306-.194a200.142,200.142,0,0,0-3.393,42.508c.564,21.944,5.256,52.932,24.407,75.944l1.053-.912Z" transform="translate(532.345 720.271)"/><path class="i" d="M272.074,347.951a20.188,20.188,0,0,1-6.1,13.7,17.369,17.369,0,0,1-5.025-13.319,20.179,20.179,0,0,1,6.1-13.7,17.372,17.372,0,0,1,5.027,13.319ZM260.54,362.379a17.732,17.732,0,0,1,3.6,13.874,16.892,16.892,0,0,1-12.5-6.493,17.745,17.745,0,0,1-3.6-13.873A16.882,16.882,0,0,1,260.54,362.379Zm-10.827,26.2c6.684,2.706,13.07,2.516,14.262-.425s-3.258-7.519-9.941-10.225-13.07-2.516-14.262.425,3.258,7.519,9.941,10.225Zm.437,18.735c6.684,2.706,13.07,2.515,14.262-.426s-3.258-7.519-9.941-10.225-13.07-2.515-14.262.426S243.466,404.61,250.149,407.316Z" transform="translate(521.192 717.023)"/><path class="i" d="M270.06,382.073a19.685,19.685,0,0,1,11.111-8.237,17.107,17.107,0,0,1-2.79,12.876,19.689,19.689,0,0,1-11.111,8.237A17.1,17.1,0,0,1,270.06,382.073Zm.529,19.433a19.764,19.764,0,0,1,11-8.413A17.012,17.012,0,0,1,279,405.988a19.749,19.749,0,0,1-11,8.412A17.032,17.032,0,0,1,270.589,401.506Zm-6.222,25.145a6.846,6.846,0,0,1,5.3,2.758,7.927,7.927,0,0,1-5.855,2.317,6.841,6.841,0,0,1-5.3-2.758A7.917,7.917,0,0,1,264.367,426.651Z" transform="translate(517.717 709.829)"/><path class="i" d="M342.245,454.52C337.926,448.587,313.89,417.043,298,411.4c-17.542-6.231-1.51,16.966-1.51,16.966s-30.418-35.177-42.036-32.421c-10.648,2.526-.7,24.072-.7,24.072s-11.56-12.1-25.991-12.522c-14.045-.406,8.514,43.049,9.737,45.319Zm246.47-34.345c-33.881-36.581-44.449-87.693-47.348-124.125a333.051,333.051,0,0,1,1.86-71.154l-2.215-.216a335.355,335.355,0,0,0-1.891,71.65c2.922,36.794,13.6,88.429,47.9,125.466Z" transform="translate(524.202 737.2)"/><path class="i" d="M611.62,209.134a33.738,33.738,0,0,1-9.031,23.512c-5.794-5.021-9.533-12.857-9.653-21.941a33.731,33.731,0,0,1,9.031-23.512C607.762,192.21,611.494,200.048,611.62,209.134Zm-18.115,25.179a29.842,29.842,0,0,1,7.3,22.992,28.613,28.613,0,0,1-21.627-9.858,29.844,29.844,0,0,1-7.306-22.988,28.6,28.6,0,0,1,21.628,9.853Zm-15.873,44.9c11.492,3.986,22.222,3.134,23.966-1.9s-6.159-12.353-17.65-16.338-22.222-3.134-23.967,1.9,6.159,12.352,17.651,16.337Zm2.421,31.412c11.492,3.986,22.222,3.134,23.966-1.9s-6.158-12.353-17.65-16.338-22.222-3.134-23.966,1.9S568.561,306.636,580.053,310.621Z" transform="translate(462.44 744.079)"/><path class="i" d="M611.509,266.676a32.984,32.984,0,0,1,17.959-14.754c1.811,6.6.758,14.536-3.539,21.849a32.98,32.98,0,0,1-17.959,14.754C606.156,281.92,607.214,273.989,611.509,266.676Zm2.639,32.578A33.1,33.1,0,0,1,631.9,284.214c1.923,6.557.99,14.489-3.2,21.864a33.09,33.09,0,0,1-17.76,15.039c-1.917-6.549-.989-14.483,3.2-21.862Zm-8.212,42.734a11.6,11.6,0,0,1,9.176,4.189,13.33,13.33,0,0,1-9.646,4.378,11.594,11.594,0,0,1-9.176-4.189A13.3,13.3,0,0,1,605.936,341.989ZM627.7,404.262s-18.342-40.546-12.211-49.593c8.474-12.5,19.011,25.863,19.526,22.49,4.853-31.846,3.837-72.011,26.538-78.1,12.9-3.459-.852,30,.749,38.618s23.068-22.156,36.288-38.44,21.315-7.3,13.653,12.455c-7.41,19.1-34.256,41.484-28.247,43.4S723.7,330.4,728.778,340.206c6.227,12.024-45.68,33.248-40.471,35.644s29.934-8.862,29.934.714-34.169,11.972-33.28,16.113c1.44,6.705,22.9-10.463,24.578-1.158,1.714,9.515-29.136,10.237-28.059,17.681.62,4.277,8.389-.2,9.795,5.681,3.2,13.408-45.411,32.2-45.411,32.2L627.7,404.262Z" transform="translate(455.733 732.201)"/><path class="e" d="M567.6,445.733c-10.078,4.711-7.358,16.412-7.358,16.412s-27.322-21.293-37.538-8.865-4.846,36.787,7.134,40.749,116.186,1.184,116.186,1.184S576.66,441.5,567.6,445.733Z" transform="translate(470.227 696.68)"/><path class="i" d="M635.094,492.766s32.006-41.007,45.383-47.291c14.256-6.7,1.9,16.505,1.9,16.505s30.481-29.884,37.641-22.423S719.528,454,719.528,454s25.524-4.734,29.247,4.811c5.719,14.664-36.263,21.956-36.263,21.956s20.112-4.4,16.087,4.674c-6.067,13.688-93.5,7.324-93.5,7.324Z" transform="translate(448.612 697.988)"/><path class="i" d="M656.516,486.082s-51,3.6-60.93-5.515-.08-25.626-.08-25.626-17.5-13.806-17.229-22.821,11.673-4.44,11.673-4.44-19.322-24.831-14.742-29.555c8.537-8.794,30.877,17.016,30.877,17.016s-6.629-12.278.364-14.227c10.548-2.941,18.309,27.341,18.309,27.341s-1.969-11.959,5.3-10.37C643.113,420.732,656.516,486.082,656.516,486.082Z" transform="translate(459.73 705.707)"/><circle class="i" cx="7.728" cy="7.728" r="7.728" transform="translate(735.94 998.961)"/><circle class="d" cx="4.293" cy="4.293" r="4.293" transform="translate(894.796 879.604) rotate(180)"/><circle class="d" cx="4.293" cy="4.293" r="4.293" transform="translate(1099.162 916.526) rotate(180)"/><circle class="d" cx="3.864" cy="3.864" r="3.864" transform="translate(727.353 937.994) rotate(180)"/><circle class="i" cx="13.221" cy="13.221" r="13.221" transform="matrix(0.966, 0.259, -0.259, 0.966, 974.628, 877.887)"/><path class="j" d="M524.771,318.267a28.363,28.363,0,0,0-17.955-8.913c-.743-.079-1.486-.128-2.4-.153-8.826-.25-17.484,3.648-22.064,9.066m-4.739-45.8v6.583m52.857-6.583v6.583" transform="translate(352.188 673.605)"/></g></svg>